HIERARCHY
ROOT hip
{
  OFFSET 0 0 0
  CHANNELS 6 Xposition Yposition Zposition Zrotation Yrotation Xrotation
  JOINT abdomen
  {
    OFFSET 0 20.6881 -0.73152
    CHANNELS 3 Zrotation Xrotation Yrotation
    JOINT chest
    {
      OFFSET 0 11.7043 -0.48768
      CHANNELS 3 Zrotation Xrotation Yrotation
      JOINT neck
      {
        OFFSET 0 22.1894 -2.19456
        CHANNELS 3 Zrotation Xrotation Yrotation
        JOINT head
        {
          OFFSET -0.24384 7.07133 1.2192
          CHANNELS 3 Zrotation Xrotation Yrotation
          JOINT leftEye
          {
            OFFSET 4.14528 8.04674 8.04672
            CHANNELS 3 Zrotation Xrotation Yrotation
            End Site
            {
              OFFSET 1 0 0
            }
          }
          JOINT rightEye
          {
            OFFSET -3.6576 8.04674 8.04672
            CHANNELS 3 Zrotation Xrotation Yrotation
            End Site
            {
              OFFSET 1 0 0
            }
          }
        }
      }
      JOINT rCollar
      {
        OFFSET -2.68224 19.2634 -4.8768
        CHANNELS 3 Zrotation Xrotation Yrotation
        JOINT rShldr
        {
          OFFSET -8.77824 -1.95073 1.46304
          CHANNELS 3 Zrotation Xrotation Yrotation
          JOINT rForeArm
          {
            OFFSET -28.1742 -1.7115 0.48768
            CHANNELS 3 Zrotation Xrotation Yrotation
            JOINT rHand
            {
              OFFSET -22.5879 0.773209 7.07136
              CHANNELS 3 Zrotation Xrotation Yrotation
              JOINT rThumb1
              {
                OFFSET -1.2192 -0.487915 3.41376
                CHANNELS 3 Zrotation Xrotation Yrotation
                JOINT rThumb2
                {
                  OFFSET -3.37035 -0.52449 3.41376
                  CHANNELS 3 Zrotation Xrotation Yrotation
                  End Site
                  {
                    OFFSET -1.78271 -1.18214 1.43049
                  }
                }
              }
              JOINT rIndex1
              {
                OFFSET -7.75947 0.938293 5.60832
                CHANNELS 3 Zrotation Xrotation Yrotation
                JOINT rIndex2
                {
                  OFFSET -2.54057 -0.884171 1.56538
                  CHANNELS 3 Zrotation Xrotation Yrotation
                  End Site
                  {
                    OFFSET -1.62519 -0.234802 1.16502
                  }
                }
              }
              JOINT rMid1
              {
                OFFSET -8.24714 1.18213 3.41376
                CHANNELS 3 Zrotation Xrotation Yrotation
                JOINT rMid2
                {
                  OFFSET -3.10165 -0.590103 1.0647
                  CHANNELS 3 Zrotation Xrotation Yrotation
                  End Site
                  {
                    OFFSET -2.48547 -0.328903 0.83742
                  }
                }
              }
              JOINT rRing1
              {
                OFFSET -8.82822 0.546677 1.51678
                CHANNELS 3 Zrotation Xrotation Yrotation
                JOINT rRing2
                {
                  OFFSET -2.60934 -0.819778 -0.0198488
                  CHANNELS 3 Zrotation Xrotation Yrotation
                  End Site
                  {
                    OFFSET -2.33842 -0.294052 0.168128
                  }
                }
              }
              JOINT rPinky1
              {
                OFFSET -8.27202 -0.0477905 -0.4584
                CHANNELS 3 Zrotation Xrotation Yrotation
                JOINT rPinky2
                {
                  OFFSET -1.82734 -0.647385 -0.700984
                  CHANNELS 3 Zrotation Xrotation Yrotation
                  End Site
                  {
                    OFFSET -1.69225 -0.51767 -0.607171
                  }
                }
              }
            }
          }
        }
      }
      JOINT lCollar
      {
        OFFSET 2.68224 19.2634 -4.8768
        CHANNELS 3 Zrotation Xrotation Yrotation
        JOINT lShldr
        {
          OFFSET 8.77824 -1.95073 1.46304
          CHANNELS 3 Zrotation Xrotation Yrotation
          JOINT lForeArm
          {
            OFFSET 28.1742 -1.7115 0.48768
            CHANNELS 3 Zrotation Xrotation Yrotation
            JOINT lHand
            {
              OFFSET 22.5879 0.773209 7.07136
              CHANNELS 3 Zrotation Xrotation Yrotation
              JOINT lThumb1
              {
                OFFSET 1.2192 -0.487915 3.41376
                CHANNELS 3 Zrotation Xrotation Yrotation
                JOINT lThumb2
                {
                  OFFSET 3.37035 -0.52449 3.41376
                  CHANNELS 3 Zrotation Xrotation Yrotation
                  End Site
                  {
                    OFFSET 1.78271 -1.18214 1.43049
                  }
                }
              }
              JOINT lIndex1
              {
                OFFSET 7.75947 0.938293 5.60832
                CHANNELS 3 Zrotation Xrotation Yrotation
                JOINT lIndex2
                {
                  OFFSET 2.54057 -0.884171 1.56538
                  CHANNELS 3 Zrotation Xrotation Yrotation
                  End Site
                  {
                    OFFSET 1.62519 -0.234802 1.16502
                  }
                }
              }
              JOINT lMid1
              {
                OFFSET 8.24714 1.18213 3.41376
                CHANNELS 3 Zrotation Xrotation Yrotation
                JOINT lMid2
                {
                  OFFSET 3.10165 -0.590103 1.0647
                  CHANNELS 3 Zrotation Xrotation Yrotation
                  End Site
                  {
                    OFFSET 2.48547 -0.328903 0.83742
                  }
                }
              }
              JOINT lRing1
              {
                OFFSET 8.82822 0.546677 1.51678
                CHANNELS 3 Zrotation Xrotation Yrotation
                JOINT lRing2
                {
                  OFFSET 2.60934 -0.819778 -0.0198488
                  CHANNELS 3 Zrotation Xrotation Yrotation
                  End Site
                  {
                    OFFSET 2.33842 -0.294052 0.168128
                  }
                }
              }
              JOINT lPinky1
              {
                OFFSET 8.27202 -0.0477905 -0.4584
                CHANNELS 3 Zrotation Xrotation Yrotation
                JOINT lPinky2
                {
                  OFFSET 1.82734 -0.647385 -0.700984
                  CHANNELS 3 Zrotation Xrotation Yrotation
                  End Site
                  {
                    OFFSET 1.69225 -0.51767 -0.607171
                  }
                }
              }
            }
          }
        }
      }
    }
  }
  JOINT rButtock
  {
    OFFSET -8.77824 4.35084 1.2192
    CHANNELS 3 Zrotation Xrotation Yrotation
    JOINT rThigh
    {
      OFFSET 0 -1.70687 -2.19456
      CHANNELS 3 Zrotation Xrotation Yrotation
      JOINT rShin
      {
        OFFSET 0 -36.8199 0.73152
        CHANNELS 3 Zrotation Xrotation Yrotation
        JOINT rFoot
        {
          OFFSET 0.73152 -45.1104 -5.12064
          CHANNELS 3 Zrotation Xrotation Yrotation
          End Site
          {
            OFFSET -1.1221 -3.69964 12.103
          }
        }
      }
    }
  }
  JOINT lButtock
  {
    OFFSET 8.77824 4.35084 1.2192
    CHANNELS 3 Zrotation Xrotation Yrotation
    JOINT lThigh
    {
      OFFSET 0 -1.70687 -2.19456
      CHANNELS 3 Zrotation Xrotation Yrotation
      JOINT lShin
      {
        OFFSET 0 -36.8199 0.73152
        CHANNELS 3 Zrotation Xrotation Yrotation
        JOINT lFoot
        {
          OFFSET -0.73152 -45.1104 -5.12064
          CHANNELS 3 Zrotation Xrotation Yrotation
          End Site
          {
            OFFSET 1.1221 -3.69964 12.103
          }
        }
      }
    }
  }
}
MOTION
Frames:	7
Frame Time:	0.00833333
178.185 82.51 43.2817 -364.43 -24.6964 -352.162 3.65975 10.833 -20.2672 41.2446 -35.4893 7.00544 -8.41126 6.0333 7.3003 -20.3567 33.117 19.5326 -0.0 0.0 0.0 -0.0 0.0 0.0 -2.76162e-13 9.98527e-13 -8.86177e-13 -160.298 84.1252 -162.501 -19.4834 -12.3763 37.4377 -0.358347 -16.7775 -2.42849 5.06711e-10 5.96668e-09 4.52968e-09 7.96057e-10 1.04413e-08 7.85858e-09 5.06721e-10 5.96668e-09 4.52967e-09 7.73091 5.47488 0.417314 5.06715e-10 5.96667e-09 4.52968e-09 2.90554 0.965183 0.102902 5.06721e-10 5.96667e-09 4.52968e-09 10.2786 0.731801 0.0259123 5.06707e-10 5.96668e-09 4.52968e-09 2.22167 -0.733487 -0.20892 -2.76104e-13 9.98539e-13 -8.86432e-13 -101.141 -14.3062 46.4208 19.5773 -12.4897 -37.6613 0.00813077 -2.52868 0.355622 -1.02457e-09 8.50714e-11 -4.88602e-09 -1.75174e-09 1.63606e-10 -8.46754e-09 -1.02459e-09 8.50732e-11 -4.886e-09 -7.73091 5.47488 -0.417314 -1.02457e-09 8.50738e-11 -4.88603e-09 -2.90554 0.965183 -0.102902 -1.02458e-09 8.50746e-11 -4.88603e-09 -10.2786 0.731801 -0.0259123 -1.02457e-09 8.50728e-11 -4.88603e-09 -2.22167 -0.733487 0.20892 -2.03217e-16 0.0 -3.88251e-19 24.3819 -10.4071 3.74352 0.0275707 12.9008 0.414092 1.58983 -6.52481 1.64388 2.03217e-16 0.0 3.88251e-19 5.54862 -30.3741 -15.0118 0.0690897 20.3277 -0.797368 -0.158518 -35.048 0.967625
178.063 82.8487 43.8738 -364.627 -26.4822 -351.902 3.40382 10.9553 -19.9804 41.0407 -35.0469 6.85566 -8.42508 5.40254 7.34301 -20.5729 32.2031 19.6268 -0.0 0.0 0.0 -0.0 0.0 0.0 -4.52494e-13 1.19737e-12 -1.08714e-12 -147.838 84.1135 -174.423 -19.3653 -12.235 37.1572 -0.355754 -16.7183 -2.41942 -6.70289e-10 9.12175e-09 6.5656e-09 -1.2708e-09 1.59461e-08 1.13744e-08 -6.70283e-10 9.12175e-09 6.56558e-09 7.73091 5.47488 0.417314 -6.70288e-10 9.12175e-09 6.56559e-09 2.90554 0.965183 0.102902 -6.70279e-10 9.12175e-09 6.56559e-09 10.2786 0.731801 0.0259123 -6.70292e-10 9.12175e-09 6.56559e-09 2.22167 -0.733487 -0.20892 -4.5246e-13 1.19739e-12 -1.08733e-12 -101.043 -14.5446 46.4454 19.394 -12.2667 -37.2313 0.00834903 -2.48847 0.349969 1.5141e-09 2.58977e-09 -5.90924e-09 2.64379e-09 4.49736e-09 -1.02425e-08 1.51408e-09 2.58977e-09 -5.90922e-09 -7.73091 5.47488 -0.417314 1.5141e-09 2.58977e-09 -5.90924e-09 -2.90554 0.965183 -0.102902 1.51409e-09 2.58977e-09 -5.90924e-09 -10.2786 0.731801 -0.0259123 1.5141e-09 2.58977e-09 -5.90925e-09 -2.22167 -0.733487 0.20892 -2.03217e-16 0.0 -3.88251e-19 23.9435 -9.23381 4.94362 0.0182083 11.8849 0.296282 1.81266 -5.63545 2.03139 2.03217e-16 0.0 3.88251e-19 4.39454 -29.5733 -20.5275 0.018361 15.6902 -0.752044 0.491628 -36.3114 1.34132
177.934 83.1556 44.5301 -364.85 -28.3103 -351.585 3.17638 11.0742 -19.6515 40.7752 -34.6326 6.71555 -8.4478 4.78187 7.35226 -20.6943 31.3022 19.6335 -0.0 0.0 0.0 -0.0 0.0 0.0 -6.02976e-13 1.33861e-12 -1.22717e-12 -137.587 83.9949 175.82 -19.2442 -12.0906 36.8729 -0.355932 -16.7243 -2.42031 -1.85022e-09 1.17913e-08 8.23578e-09 -3.33621e-09 2.06013e-08 1.42561e-08 -1.85022e-09 1.17912e-08 8.23577e-09 7.73091 5.47488 0.417314 -1.85023e-09 1.17912e-08 8.23579e-09 2.90554 0.965183 0.102902 -1.85021e-09 1.17913e-08 8.23578e-09 10.2786 0.731801 0.0259123 -1.85023e-09 1.17913e-08 8.23578e-09 2.22167 -0.733487 -0.20892 -6.02975e-13 1.33864e-12 -1.2273e-12 -100.895 -14.7379 46.5127 19.1603 -11.9883 -36.6853 0.00754915 -2.34488 0.329753 3.96755e-09 4.85137e-09 -6.59526e-09 6.89041e-09 8.40927e-09 -1.14332e-08 3.96753e-09 4.85137e-09 -6.59524e-09 -7.73091 5.47488 -0.417314 3.96754e-09 4.85137e-09 -6.59526e-09 -2.90554 0.965183 -0.102902 3.96754e-09 4.85137e-09 -6.59526e-09 -10.2786 0.731801 -0.0259123 3.96755e-09 4.85137e-09 -6.59527e-09 -2.22167 -0.733487 0.20892 -2.03217e-16 0.0 -3.88251e-19 23.48 -8.12496 6.21779 0.0032483 11.0367 0.17209 2.04144 -4.88409 2.27578 2.03217e-16 0.0 3.88251e-19 3.3976 -28.7208 -25.8729 -0.0243688 11.7625 -0.725244 0.896053 -37.1893 1.24624
177.769 83.3018 45.3018 -364.987 -30.1894 -351.263 3.0338 11.0857 -19.3225 40.4727 -34.1872 6.55378 -8.46502 4.19126 7.33372 -20.7185 30.5111 19.572 -0.0 0.0 0.0 -0.0 0.0 0.0 -6.67971e-13 1.37239e-12 -1.25632e-12 -129.802 83.9346 168.429 -19.1442 -11.9721 36.6407 -0.358489 -16.7848 -2.42956 -2.43704e-09 1.27726e-08 8.81325e-09 -4.35893e-09 2.23106e-08 1.52504e-08 -2.43704e-09 1.27726e-08 8.81324e-09 7.73091 5.47488 0.417314 -2.43704e-09 1.27726e-08 8.81326e-09 2.90554 0.965183 0.102902 -2.43703e-09 1.27726e-08 8.81325e-09 10.2786 0.731801 0.0259123 -2.43704e-09 1.27726e-08 8.81325e-09 2.22167 -0.733487 -0.20892 -6.68006e-13 1.37243e-12 -1.25642e-12 -100.637 -14.9953 46.606 18.8912 -11.678 -36.0516 0.0050323 -2.02509 0.284728 5.32797e-09 5.97967e-09 -6.68498e-09 9.24361e-09 1.03594e-08 -1.15898e-08 5.32795e-09 5.97967e-09 -6.68497e-09 -7.73091 5.47488 -0.417314 5.32796e-09 5.97966e-09 -6.68499e-09 -2.90554 0.965183 -0.102902 5.32796e-09 5.97967e-09 -6.68498e-09 -10.2786 0.731801 -0.0259123 5.32797e-09 5.97967e-09 -6.685e-09 -2.22167 -0.733487 0.20892 -2.03217e-16 0.0 -3.88251e-19 23.0192 -7.16859 7.18937 -0.011589 10.5104 0.0745764 2.24478 -4.21121 2.685 2.03217e-16 0.0 3.88251e-19 2.50876 -28.2337 -30.2205 -0.0540984 9.20812 -0.724981 0.836289 -37.2582 0.373483
177.575 83.3897 46.1566 -365.159 -31.9086 -350.859 2.9853 10.9494 -19.0028 40.1377 -33.6892 6.36148 -8.48004 3.62357 7.2839 -20.6429 29.8498 19.4379 -0.0 0.0 0.0 -0.0 0.0 0.0 -5.96383e-13 1.20933e-12 -1.09838e-12 -124.119 84.068 163.019 -19.0707 -11.8857 36.4699 -0.364345 -16.9181 -2.45001 -2.12274e-09 1.10145e-08 7.6054e-09 -3.79535e-09 1.92391e-08 1.31601e-08 -2.12274e-09 1.10145e-08 7.60539e-09 7.73091 5.47488 0.417314 -2.12274e-09 1.10145e-08 7.6054e-09 2.90554 0.965183 0.102902 -2.12273e-09 1.10145e-08 7.6054e-09 10.2786 0.731801 0.0259123 -2.12274e-09 1.10145e-08 7.6054e-09 2.22167 -0.733487 -0.20892 -5.96461e-13 1.20936e-12 -1.09848e-12 -100.232 -15.3618 46.729 18.5699 -11.3174 -35.2986 0.00118327 -1.43119 0.201158 5.04516e-09 5.43969e-09 -5.76406e-09 8.75004e-09 9.42163e-09 -9.994e-09 5.04515e-09 5.43968e-09 -5.76406e-09 -7.73091 5.47488 -0.417314 5.04515e-09 5.43968e-09 -5.76407e-09 -2.90554 0.965183 -0.102902 5.04515e-09 5.43968e-09 -5.76407e-09 -10.2786 0.731801 -0.0259123 5.04517e-09 5.43968e-09 -5.76408e-09 -2.22167 -0.733487 0.20892 -2.03217e-16 0.0 -3.88251e-19 22.5673 -6.43037 7.7236 -0.0236337 10.3912 0.00364348 2.42253 -3.62427 3.38442 2.03217e-16 0.0 3.88251e-19 1.56602 -28.4919 -33.5363 -0.0737435 8.51082 -0.773393 0.110642 -36.523 -1.76514
177.243 83.4307 47.1149 -365.387 -33.5639 -350.449 3.00532 10.7241 -18.6712 39.7588 -33.1718 6.15615 -8.49986 3.07209 7.20143 -20.475 29.2668 19.2251 -0.0 0.0 0.0 -0.0 0.0 0.0 -4.3175e-13 9.01376e-13 -8.00953e-13 -119.799 84.4024 158.888 -19.0118 -11.8171 36.3323 -0.373554 -17.1229 -2.48151 -1.27491e-09 7.40193e-09 5.16621e-09 -2.28944e-09 1.29301e-08 8.94137e-09 -1.27491e-09 7.40193e-09 5.16619e-09 7.73091 5.47488 0.417314 -1.27491e-09 7.40193e-09 5.16621e-09 2.90554 0.965183 0.102902 -1.2749e-09 7.40193e-09 5.16621e-09 10.2786 0.731801 0.0259123 -1.27491e-09 7.40193e-09 5.16621e-09 2.22167 -0.733487 -0.20892 -4.3188e-13 9.01401e-13 -8.01084e-13 -99.7196 -15.7726 46.8899 18.1876 -10.8952 -34.4265 -0.00141823 -0.628172 0.088257 3.75044e-09 3.8054e-09 -4.08577e-09 6.50283e-09 6.58905e-09 -7.08504e-09 3.75043e-09 3.80539e-09 -4.08578e-09 -7.73091 5.47488 -0.417314 3.75043e-09 3.80539e-09 -4.08578e-09 -2.90554 0.965183 -0.102902 3.75044e-09 3.80539e-09 -4.08578e-09 -10.2786 0.731801 -0.0259123 3.75045e-09 3.8054e-09 -4.08579e-09 -2.22167 -0.733487 0.20892 -2.03217e-16 0.0 -3.88251e-19 22.1362 -5.849 8.03593 -0.0335455 10.582 -0.0559598 2.5886 -3.14716 4.19547 2.03217e-16 0.0 3.88251e-19 0.494834 -29.2388 -36.2941 -0.0859213 9.21435 -0.856361 -0.976484 -35.1123 -4.7867
176.807 83.4347 48.1668 -365.54 -35.1879 -350.12 3.09938 10.4544 -18.3243 39.3378 -32.6584 5.94662 -8.51503 2.55745 7.09495 -20.2245 28.7522 18.9472 -0.0 0.0 0.0 -0.0 0.0 0.0 -2.56383e-13 6.10672e-13 -4.998e-13 -116.351 84.8815 155.573 -18.9668 -11.7652 36.2271 -0.384391 -17.3588 -2.51791 -3.10835e-10 3.63654e-09 2.63853e-09 -5.8134e-10 6.35472e-09 4.57066e-09 -3.1083e-10 3.63654e-09 2.63852e-09 7.73091 5.47488 0.417314 -3.10836e-10 3.63654e-09 2.63853e-09 2.90554 0.965183 0.102902 -3.10828e-10 3.63654e-09 2.63853e-09 10.2786 0.731801 0.0259123 -3.10837e-10 3.63654e-09 2.63853e-09 2.22167 -0.733487 -0.20892 -2.56561e-13 6.10685e-13 -4.99967e-13 -99.1454 -16.1733 47.0781 17.7756 -10.4501 -33.51 -0.00114335 0.212428 -0.0298707 2.20826e-09 1.85002e-09 -2.39244e-09 3.82717e-09 3.20066e-09 -4.14994e-09 2.20825e-09 1.85e-09 -2.39245e-09 -7.73091 5.47488 -0.417314 2.20825e-09 1.85e-09 -2.39245e-09 -2.90554 0.965183 -0.102902 2.20826e-09 1.85001e-09 -2.39244e-09 -10.2786 0.731801 -0.0259123 2.20827e-09 1.85001e-09 -2.39245e-09 -2.22167 -0.733487 0.20892 -2.03217e-16 0.0 -3.88251e-19 21.7756 -5.32222 8.27652 -0.0395966 10.9644 -0.0940488 2.72385 -2.7451 4.96933 2.03217e-16 0.0 3.88251e-19 -0.612054 -30.0404 -38.4369 -0.0855925 10.5727 -0.928048 -1.83662 -32.8372 -7.67321
